<svg width="442" height="442" viewBox="0 0 442 442" fill="none" xmlns="http://www.w3.org/2000/svg">
<rect x="0.5" y="0.5" width="380.034" height="380.034" fill="#1F2432" stroke="white"/>
<path d="M31.9827 31.9828H410.017V410.017H31.9827V31.9828Z" fill="white" stroke="#1F2432" stroke-width="3"/>
<rect x="61.4655" y="61.4655" width="380.034" height="380.034" fill="#1F2432" stroke="#1F2432"/>
<path d="M198.365 363.956L192.691 357.33L199.337 348.92L207.095 352.909L214.932 342.992L162.762 318.69L154.825 328.732L190.528 373.873L198.365 363.956ZM189.587 343.968L185.57 349.052L174.611 336.211L189.587 343.968ZM216.921 340.475L223.865 331.688L204.156 316.113C202.327 313.138 202.52 309.926 204.752 307.101C205.447 306.223 206.528 305.242 207.275 304.812L198.927 298.215C198.23 298.582 197.459 299.298 196.814 300.114C194.483 303.064 194.081 306.928 196.502 310.574L191.242 308.456L185.538 315.674L216.921 340.475ZM216.677 292.012L220.943 286.614L213.285 280.562L209.019 285.96L200.107 278.917L194.418 288.696L202.075 294.748L200.95 298.752L207.352 303.812L209.733 300.799L223.855 311.96C231.073 317.664 236.245 317.57 241.255 311.231C243.041 308.971 243.852 306.655 244.001 304.53L237.913 299.719L235.532 302.732C233.994 304.677 232.871 304.809 230.235 302.726L216.677 292.012ZM227.056 263.137L241.311 279.807L221.947 269.602L214.705 278.766L252.04 296.035L258.488 287.876L243.275 269.837L264.342 280.469L270.79 272.31L245.359 239.977L238.117 249.14L252.521 265.622L233.008 255.605L227.056 263.137ZM276.212 224.675C268.241 218.376 260.19 219.661 254.883 226.377C249.575 233.093 250.186 241.223 258.157 247.522L266.442 254.07C274.414 260.369 282.465 259.084 287.772 252.368C293.08 245.652 292.469 237.522 284.498 231.223L276.212 224.675ZM278.306 240.605C280.943 242.689 281.404 244.685 280.115 246.317C278.825 247.949 276.776 247.961 274.14 245.878L264.348 238.14C261.712 236.057 261.25 234.06 262.54 232.428C263.83 230.796 265.879 230.784 268.515 232.867L278.306 240.605ZM299.316 236.212L306.261 227.425L286.552 211.85C284.723 208.874 284.916 205.662 287.148 202.838C287.842 201.959 288.924 200.978 289.671 200.549L281.323 193.952C280.625 194.318 279.855 195.035 279.21 195.851C276.879 198.801 276.477 202.664 278.898 206.31L273.637 204.193L267.933 211.411L299.316 236.212ZM302.075 171.563L300.443 170.273L293.498 179.061L295.946 180.995C299.524 183.822 300.647 185.627 301.042 188.998L301.305 191.246L277.265 172.248L270.321 181.036L315.011 216.352L321.955 207.565L311.912 199.629L311.745 196.743L326.37 201.979L333.463 193.003L310.905 185.679C310.303 179.085 307.473 175.829 302.075 171.563ZM335.718 171.827C337.036 172.869 336.735 174.67 335.792 175.862C334.304 177.745 332 178.984 328.398 178.38L326.766 185.349C334.402 187.815 340.027 186.245 344.095 181.098C348.807 175.135 349.002 168.05 342.537 162.941L341.658 162.246C337.013 158.576 332.539 158.303 326.678 162.236L324.301 163.824C321.663 165.614 320.651 165.733 318.894 164.344C317.952 163.6 317.622 162.727 318.416 161.723C319.21 160.719 320.135 160.838 321.076 161.582L322.081 162.376L329.025 153.588L327.581 152.447C322.686 148.579 316.115 148.893 310.758 155.671C305.401 162.45 306.614 168.915 311.51 172.784L312.452 173.528C317.724 177.694 322.136 177.918 327.997 173.985L330.374 172.396C332.963 170.669 334.212 170.637 335.718 171.827Z" fill="white"/>
</svg>
