<svg width="842" height="591" viewBox="0 0 842 591" fill="none" xmlns="http://www.w3.org/2000/svg">
<g clip-path="url(#clip0_173_236)">
<path d="M3.5316 169.405L6.84795 181.358L10.1051 193.104L13.4016 204.909L16.718 216.764L20.0541 228.658L23.4099 240.592L26.7756 252.575L30.1709 264.578L33.576 276.62L36.9911 288.692L40.416 300.774L43.8507 312.885L47.2954 325.006L50.7401 337.137L54.1946 349.278L57.6491 361.419L61.1036 373.57L64.5482 385.701L68.0028 397.842L71.4375 409.963L74.8723 422.104L78.3071 434.147L81.7221 446.189L85.1174 458.231L88.5127 470.273L91.8784 482.217L95.2342 494.161L98.5703 506.005L101.887 517.85L105.173 529.695L108.43 541.441L111.707 553.286L112.102 554.372L112.694 555.556L113.425 556.543L114.274 557.53L115.201 558.419L116.218 559.209L117.304 559.899L118.458 560.59L119.682 561.183L120.965 561.676L122.318 562.17L123.729 562.565L125.2 562.959L126.73 563.256L128.319 563.552L129.967 563.848L131.665 564.045L133.421 564.144L135.218 564.243H137.073H138.968H140.913L142.897 564.144L144.93 564.045L146.993 563.848L149.085 563.552L151.217 563.256L153.379 562.861L155.56 562.466L157.771 562.071L160.001 561.479L162.045 560.985L182.495 557.629L203.064 554.174L223.594 550.72L244.065 547.166L264.486 543.514L284.877 539.862L305.219 536.21L325.532 532.459L345.805 528.708L366.058 524.957L386.292 521.108L406.506 517.258L426.7 513.408L446.874 509.559L467.049 505.611L487.223 501.761L507.388 497.911L527.562 494.062L547.736 490.114L567.901 486.264L588.134 482.414L608.368 478.664L628.602 474.814L648.835 471.063L669.168 467.312L689.5 463.66L709.832 460.008L730.263 456.454L750.694 452.901L771.224 449.348L791.754 445.992L812.678 442.537L814.356 441.945L815.738 441.352L817.218 440.661L818.699 439.872L820.081 438.885L821.561 437.898L822.943 436.713L824.325 435.43L825.707 434.147L826.99 432.666L828.273 431.087L829.556 429.409L830.839 427.632L832.023 425.757L833.109 423.684L834.195 421.611L835.28 419.341L836.267 417.07L837.156 414.603L838.044 412.046L838.735 409.391L839.525 406.617L840.117 403.725L840.61 400.724L841.104 397.615L841.4 394.388L841.696 391.051L841.795 387.596L841.893 384.033L841.795 380.351L841.597 376.551L841.301 371.892L656.337 13.6646L25.0878 111.118L22.3735 111.671L19.8468 112.293L17.478 113.013L15.2671 113.833L13.2141 114.75L11.3092 115.767L9.55233 116.902L7.93363 118.146L6.48276 119.498L5.18976 120.959L4.05471 122.519L3.07758 124.157L2.26823 125.875L1.59708 127.661L1.07396 129.497L0.669289 131.383L0.392929 133.317L0.205396 135.301L0.116569 137.335L0.106689 139.417L0.165907 141.559L0.294223 143.751L0.481756 146.001L0.708778 148.301L0.985138 150.68L1.29111 153.108L1.62669 155.615L1.98199 158.172L2.35706 160.807L2.73213 163.512L3.11707 166.285L3.5316 169.405Z" fill="#1F2432" stroke="#1F2432" stroke-width="0.21603"/>
<path d="M4.48889 169.207L7.78548 181.091L11.0525 192.847L14.3392 204.643L17.6555 216.498L20.9916 228.392L24.3474 240.335L27.7131 252.309L31.1084 264.311L34.5136 276.354L37.9286 288.425L41.3535 300.507L44.7883 312.619L48.2329 324.74L51.6776 336.871L55.1321 349.012L58.5866 361.153L62.0411 373.304L65.4858 385.435L68.9403 397.566L72.385 409.687L75.8197 421.808L79.2446 433.851L82.6597 445.991L86.0649 458.034L89.4503 469.977L92.8159 481.921L96.1718 493.864L99.5079 505.808L102.824 517.653L106.111 529.399L109.378 541.145L112.635 552.99L113 553.977L113.533 555.063L114.204 555.951L114.974 556.84L115.833 557.728L116.78 558.419L117.807 559.11L118.912 559.702L120.077 560.294L121.311 560.788L122.614 561.281L123.986 561.676L125.427 561.972L126.917 562.367L128.467 562.564L130.085 562.861L131.753 563.058L133.481 563.157L135.257 563.256H137.083L138.958 563.354L140.883 563.256L142.847 563.157L144.851 563.058L146.884 562.861L148.957 562.564L151.069 562.268L153.201 561.972L155.372 561.577L157.554 561.084L159.764 560.59L161.837 559.998L182.337 556.642L202.906 553.187L223.426 549.733L243.897 546.179L264.318 542.626L284.7 538.974L305.042 535.223L325.354 531.472L345.627 527.721L365.881 523.97L386.114 520.12L406.318 516.271L426.512 512.421L446.697 508.572L466.871 504.722L487.036 500.873L507.2 496.924L527.374 493.075L547.549 489.225L567.703 485.376L587.937 481.526L608.171 477.676L628.404 473.926L648.638 470.076L668.97 466.424L689.302 462.673L709.635 459.021L730.066 455.467L750.497 451.914L771.026 448.459L791.556 445.004L812.481 441.55L813.961 441.056L815.343 440.464L816.725 439.773L818.205 438.983L819.587 438.095L820.969 437.108L822.252 435.923L823.634 434.739L824.917 433.456L826.299 431.975L827.582 430.495L828.766 428.817L830.049 427.04L831.135 425.263L832.319 423.289L833.405 421.117L834.392 418.946L835.379 416.676L836.267 414.307L837.057 411.76L837.847 409.134L838.538 406.39L839.13 403.538L839.623 400.576L840.117 397.497L840.413 394.299L840.709 390.992L840.808 387.577L840.906 384.033L840.808 380.381L840.61 376.61L840.314 372.169L655.744 14.7405L25.2555 112.085L22.5906 112.618L20.1033 113.23L17.7937 113.941L15.6421 114.731L13.6384 115.619L11.8026 116.606L10.1049 117.692L8.56522 118.886L7.18342 120.179L5.94967 121.571L4.87383 123.052L3.94605 124.621L3.16631 126.26L2.52476 127.967L2.02138 129.734L1.63646 131.56L1.3601 133.436L1.18242 135.37L1.09359 137.354L1.08374 139.407L1.14296 141.51L1.27124 143.681L1.44893 145.902L1.67592 148.202L1.95228 150.561L2.25825 152.99L2.59386 155.477L2.94916 158.043L3.32423 160.669L3.6993 163.374L4.08421 166.147L4.48889 169.207Z" fill="#1F2432" stroke="#1F2432" stroke-width="0.21603"/>
<path d="M5.44632 169.01L8.72319 180.835L11.9902 192.581L15.2769 204.386L18.5932 216.231L21.9293 228.125L25.2851 240.069L28.6607 252.042L32.0461 264.055L35.4513 276.087L38.8663 288.159L42.2912 300.241L45.726 312.352L49.1707 324.473L52.6153 336.604L56.0698 348.745L59.5243 360.886L62.9788 373.027L66.4235 385.168L69.878 397.309L73.3128 409.43L76.7574 421.512L80.1823 433.653L83.5974 445.695L86.9927 457.738L90.388 469.681L93.7635 481.724L97.1095 493.667L100.446 505.512L103.762 517.357L107.049 529.202L110.316 540.948L113.573 552.694L113.898 553.582L114.372 554.569L114.974 555.359L115.675 556.149L116.465 556.938L117.353 557.629L118.31 558.221L119.357 558.814L120.472 559.406L121.656 559.899L122.92 560.294L124.252 560.689L125.644 561.084L127.105 561.38L128.625 561.676L130.214 561.874L131.852 562.071L133.55 562.17L135.297 562.268L137.103 562.367H138.949L140.844 562.268L142.788 562.17L144.762 562.071L146.785 561.874L148.838 561.577L150.921 561.281L153.033 560.985L155.175 560.59L157.346 560.097L159.538 559.603L161.64 559.11L182.179 555.754L202.749 552.299L223.259 548.746L243.729 545.192L264.15 541.639L284.532 537.987L304.864 534.334L325.177 530.584L345.45 526.833L365.703 522.983L385.927 519.232L406.141 515.383L426.335 511.533L446.509 507.585L466.684 503.735L486.848 499.886L507.022 495.937L527.197 492.088L547.371 488.238L567.506 484.389L587.74 480.539L607.973 476.689L628.207 472.939L648.539 469.188L668.773 465.437L689.105 461.785L709.536 458.133L729.868 454.48L750.398 450.927L770.829 447.472L791.457 444.017L812.184 440.661L813.665 440.168L814.948 439.576L816.33 438.885L817.613 438.194L818.995 437.305L820.377 436.318L821.66 435.232L822.943 434.048L824.226 432.765L825.509 431.383L826.792 429.902L827.977 428.224L829.161 426.546L830.345 424.671L831.431 422.795L832.517 420.723L833.504 418.551L834.392 416.281L835.379 413.912L836.169 411.474L836.86 408.878L837.551 406.173L838.143 403.35L838.735 400.418L839.13 397.368L839.525 394.21L839.722 390.933L839.919 387.547V384.033L839.821 380.411L839.722 376.67L839.327 372.435L655.251 15.8065L25.4233 113.043L22.8077 113.566L20.3698 114.178L18.0997 114.869L16.0073 115.639L14.0727 116.498L12.2961 117.455L10.6775 118.491L9.19696 119.627L7.88423 120.86L6.70969 122.183L5.6832 123.585L4.80478 125.075L4.06452 126.635L3.45259 128.273L2.96893 129.971L2.5939 131.728L2.32739 133.554L2.14973 135.439L2.06091 137.384L2.05103 139.398L2.12012 141.47L2.23856 143.612L2.42609 145.823L2.65311 148.094L2.91959 150.443L3.22556 152.861L3.56114 155.349L3.91648 157.905L4.28167 160.541L4.66658 163.245L5.05153 166.019L5.44632 169.01Z" fill="#1F2432" stroke="#1F2432" stroke-width="0.21603"/>
<path d="M6.40386 168.812L9.66096 180.568L12.928 192.324L16.2147 204.12L19.531 215.975L22.8671 227.869L26.2229 239.802L29.5985 251.776L32.9839 263.788L36.3891 275.821L39.8041 287.892L43.229 299.974L46.6638 312.086L50.1084 324.207L53.5531 336.338L57.0076 348.479L60.4621 360.62L63.9166 372.771L67.3613 384.902L70.8158 397.033L74.2604 409.154L77.6952 421.315L81.1201 433.357L84.5351 445.399L87.9403 457.442L91.3257 469.484L94.7013 481.427L98.0472 493.371L101.383 505.216L104.7 517.061L107.986 528.905L111.253 540.652L114.501 552.398L114.797 553.187L115.211 553.977L115.744 554.767L116.376 555.556L117.106 556.149L117.916 556.84L118.814 557.432L119.801 557.925L120.867 558.518L122.012 558.912L123.226 559.406L124.509 559.801L125.871 560.097L127.292 560.393L128.783 560.689L130.332 560.887L131.941 561.084L133.619 561.183L135.336 561.281L137.113 561.38H138.939L140.814 561.281L142.729 561.183L144.683 561.084L146.677 560.887L148.71 560.689L150.773 560.393L152.866 559.998L154.988 559.603L157.139 559.209L159.301 558.715L161.443 558.123L182.022 554.767L202.581 551.312L223.101 547.857L243.561 544.304L263.983 540.652L284.354 537L304.696 533.347L324.999 529.596L345.272 525.846L365.526 521.996L385.749 518.245L405.953 514.396L426.147 510.546L446.332 506.696L466.496 502.748L486.671 498.899L506.835 495.049L527.009 491.101L547.184 487.251L567.408 483.402L587.542 479.552L607.776 475.801L628.01 471.952L648.342 468.201L668.575 464.45L688.908 460.798L709.339 457.145L729.77 453.493L750.201 449.94L770.73 446.485L791.26 443.03L811.987 439.674L813.27 439.28L814.554 438.687L815.837 438.095L817.12 437.305L818.403 436.516L819.785 435.529L820.969 434.542L822.351 433.357L823.535 432.074L824.818 430.692L826.003 429.211L827.187 427.632L828.372 425.954L829.457 424.177L830.543 422.302L831.629 420.328L832.616 418.156L833.504 415.985L834.392 413.626L835.182 411.187L835.972 408.621L836.662 405.956L837.255 403.163L837.748 400.271L838.143 397.25L838.538 394.121L838.735 390.874L838.933 387.518V384.043L838.834 380.44L838.735 376.729L838.439 372.711L654.659 16.8726L25.6011 114L23.0152 114.523L20.6266 115.116L18.4157 115.787L16.3726 116.537L14.4973 117.376L12.7898 118.294L11.2402 119.291L9.82877 120.377L8.57528 121.542L7.46984 122.795L6.50257 124.128L5.66361 125.529L4.96284 127.02L4.38051 128.579L3.91662 130.208L3.55143 131.906L3.2948 133.663L3.127 135.499L3.03817 137.404L3.02832 139.378L3.08754 141.421L3.21582 143.543L3.39351 145.735L3.6205 147.995L3.88701 150.324L4.19298 152.733L4.52856 155.211L4.88386 157.767L5.24908 160.403L5.634 163.107L6.01894 165.891L6.40386 168.812Z" fill="#1F2432" stroke="#1F2432" stroke-width="0.21603"/>
<path d="M7.36123 168.625C41.7485 293.005 81.0412 427.731 115.428 552.102C117.62 559.998 138.041 563.354 161.235 557.136C381.485 521.601 591.49 474.32 811.691 438.687C824.423 434.838 839.623 414.208 835.873 372.978L654.165 17.9485L25.7689 114.968C-2.3509 120.002 3.33425 137.67 7.36123 168.625V168.625Z" fill="#1F2432" stroke="#1F2432" stroke-width="0.21603"/>
<path d="M13.7372 160.491L112.221 493.864C114.293 500.873 132.296 503.932 152.905 498.405C348.509 466.72 614.093 417.564 809.717 385.948C824.127 384.231 835.478 376.837 829.161 357.293L654.363 17.9485L27.4468 114.01C2.47554 118.482 4.30148 134.472 13.7372 160.491Z" fill="white" stroke="#1F2432" stroke-width="0.21603"/>
<path d="M659.001 190.587L709.437 183.233L783.463 326.062L731.448 336.644L659.001 190.587Z" fill="white" stroke="#1F2432" stroke-width="0.21603"/>
<path d="M708.845 223.368L711.708 223.229L748.622 295.878L745.661 296.549L708.845 223.368Z" fill="#1F2432" stroke="#1F2432" stroke-width="0.21603"/>
<path d="M603.334 80.7064C621.1 82.641 634.129 91.3568 632.352 100.152C630.674 108.946 614.882 114.504 597.116 112.559C579.35 110.624 566.322 101.918 568.098 93.1138C569.776 84.319 585.568 78.7618 603.334 80.7064Z" fill="#1F2432" stroke="#1F2432" stroke-width="0.21603"/>
<path d="M604.914 62.5542C653.77 69.9671 689.5 103.241 684.762 136.861C680.025 170.48 636.597 191.722 587.839 184.299C538.942 176.887 503.154 143.612 507.881 109.993C512.599 76.383 556.057 55.1314 604.914 62.5542V62.5542Z" fill="#1F2432" stroke="#1F2432" stroke-width="0.21603"/>
<path d="M604.42 59.7903C653.08 66.8972 688.711 98.7697 683.973 130.968C679.334 163.166 636.103 183.51 587.444 176.413C538.804 169.306 503.173 137.433 507.871 105.235C512.579 73.0368 555.86 52.6834 604.42 59.7903Z" fill="white" stroke="#1F2432" stroke-width="0.21603"/>
<path d="M621.298 110.19C614.685 113.003 605.506 114.237 595.636 113.161C577.87 111.217 564.94 102.511 566.618 93.716C567.407 89.442 571.553 85.9379 577.672 83.6775C572.441 85.9379 568.888 89.2051 568.098 93.1139C566.42 101.919 579.35 110.625 597.116 112.559C606.296 113.566 614.882 112.579 621.298 110.19Z" fill="white" stroke="#1F2432" stroke-width="0.21603"/>
<path d="M602.644 71.2699C640.545 76.7284 668.181 101.178 664.529 125.885C662.555 139.289 651.796 150.018 636.202 156.158C626.233 160.087 614.389 162.14 601.657 161.794C597.61 161.686 593.563 161.34 589.418 160.748C551.576 155.299 523.861 130.84 527.523 106.143C531.175 81.4368 564.841 65.8213 602.644 71.2699V71.2699Z" fill="#1F2432" stroke="#1F2432" stroke-width="0.21603"/>
<path d="M603.137 69.0096C639.064 73.8067 665.417 95.3644 661.962 117.129C658.508 138.904 626.529 152.664 590.602 147.857C554.665 143.05 528.352 121.502 531.826 99.7272C535.3 77.9623 567.21 64.2026 603.137 69.0096Z" fill="white" stroke="#1F2432" stroke-width="0.21603"/>
<path d="M602.347 80.4991C622.384 83.4011 636.991 96.4205 635.017 109.568C633.142 122.716 615.376 131.027 595.34 128.125C575.402 125.223 560.696 112.214 562.67 99.056C564.644 85.9082 582.41 77.5971 602.347 80.4991V80.4991Z" fill="#1F2432" stroke="#1F2432" stroke-width="0.21603"/>
<path d="M648.44 52.5847C643.111 64.7158 628.898 70.0559 616.56 64.5283C604.223 58.9908 596.623 43.6813 603.729 32.5373L617.942 10.1901C624.259 0.270019 635.609 -2.41485 646.565 2.50076C657.521 7.42624 662.653 20.1792 658.014 30.9679C654.56 38.9039 651.895 44.5006 648.44 52.5847V52.5847Z" fill="#1F2432" stroke="white" stroke-width="0.21603"/>
<path d="M632.056 27.6711C642.814 32.0043 647.848 43.2273 643.308 52.7229C638.669 62.2185 626.233 66.4136 615.475 62.0803C604.618 57.7471 599.682 46.5241 604.223 37.0285C608.862 27.523 621.298 23.3378 632.056 27.6711Z" fill="white" stroke="#1F2432" stroke-width="0.21603"/>
<path d="M601.854 81.2986C619.62 83.2432 632.648 91.9491 630.872 100.744C629.194 109.539 613.402 115.096 595.636 113.161C577.87 111.217 564.94 102.511 566.618 93.716C568.296 84.9212 584.088 79.3541 601.854 81.2986Z" fill="white" stroke="#1F2432" stroke-width="0.21603"/>
<path d="M611.823 46.9781C616.067 29.0628 639.656 40.1871 630.872 54.2825C625.345 50.0776 618.83 48.0047 611.823 46.9781Z" fill="white" stroke="#1F2432" stroke-width="0.21603"/>
<path d="M334.632 76.1362C482.92 76.1362 603.137 159.978 603.137 263.374C603.137 366.769 482.92 450.631 334.632 450.631C186.345 450.631 66.0979 366.769 66.0979 263.374C66.0979 159.978 186.345 76.1362 334.632 76.1362V76.1362Z" fill="white" stroke="#1F2432" stroke-width="0.21603"/>
<path d="M336.774 76.1362C483.877 76.1362 603.137 158.537 603.137 260.156C603.137 361.775 483.877 444.215 336.774 444.215C189.671 444.215 70.3716 361.775 70.3716 260.156C70.3716 158.537 189.671 76.1362 336.774 76.1362V76.1362Z" fill="#1F2432" stroke="#1F2432" stroke-width="0.21603"/>
<path d="M484.499 115.698C543.364 146.06 581.423 194.377 581.423 248.804C581.423 340.681 472.892 415.195 339.024 415.195C282.755 415.195 230.947 402.027 189.799 379.927C230.247 400.695 280.455 412.994 334.83 412.994C468.697 412.994 577.277 338.48 577.277 246.593C577.277 193.479 540.966 146.159 484.499 115.698V115.698Z" fill="white" stroke="#1F2432" stroke-width="0.21603"/>
<path d="M334.948 80.4202C468.806 80.4202 577.376 154.934 577.376 246.82C577.376 338.697 468.806 413.211 334.948 413.211C201.09 413.211 92.5298 338.697 92.5298 246.82C92.5298 154.934 201.09 80.4202 334.948 80.4202V80.4202Z" fill="#1F2432" stroke="#1F2432" stroke-width="0.21603"/>
<path d="M637.386 91.7419C637.386 102.718 623.765 111.631 606.986 111.631C590.207 111.631 570.467 100.221 572.046 89.3433L575.303 65.4956C576.784 54.6181 590.701 46.9486 607.48 46.9486C624.259 46.9486 637.978 55.8519 637.978 66.838C637.978 77.5774 637.386 80.6966 637.386 91.7419V91.7419Z" fill="#1F2432" stroke="#1F2432" stroke-width="0.21603"/>
<path d="M637.781 66.3247C637.88 66.7491 637.88 67.1736 637.88 67.6079C637.88 79.048 623.963 88.3265 606.69 88.3265C589.516 88.3265 575.501 79.048 575.501 67.6079C575.501 67.1736 575.501 66.7491 575.6 66.3247C576.587 77.1726 590.109 85.77 606.69 85.77C623.272 85.77 636.794 77.1726 637.781 66.3247Z" fill="white" stroke="#1F2432" stroke-width="0.21603"/>
<path d="M586.95 96.7068C595.34 92.3143 603.038 100.616 599.288 108.216C599.485 107.476 599.683 106.696 599.683 105.887C599.979 100.714 596.031 96.312 590.898 96.0553C589.516 95.9764 588.233 96.2231 586.95 96.7068V96.7068Z" fill="white" stroke="#1F2432" stroke-width="0.21603"/>
<path d="M477.59 52.9795C494.527 54.8056 507.358 64.7355 506.233 75.1491C505.117 85.5726 490.47 92.5512 473.533 90.7251C456.596 88.9089 443.765 78.9789 444.881 68.5555C446.006 58.1419 460.653 51.1633 477.59 52.9795Z" stroke="#1F2432" stroke-width="0.21603"/>
<path d="M333.941 76.7581C466.545 76.7581 574.119 151.272 574.119 243.158C574.119 335.045 466.545 409.549 333.941 409.549C201.327 409.549 93.7932 335.045 93.7932 243.158C93.7932 151.272 201.327 76.7581 333.941 76.7581Z" fill="white" stroke="#1F2432" stroke-width="0.21603"/>
<path d="M471.815 215.158L480.477 231.448L503.257 219.336L494.595 203.045L505.985 196.989L496.408 178.977L485.018 185.033L453.963 126.626L431.977 138.316L421.012 220.255L430.096 237.34L471.815 215.158ZM448.154 170.657L462.238 197.146L443.034 207.357L448.154 170.657Z" fill="#1F2432"/>
<path d="M228.815 293.158L237.477 309.448L260.257 297.336L251.595 281.045L262.985 274.989L253.408 256.977L242.018 263.033L210.963 204.626L188.977 216.316L178.012 298.255L187.096 315.34L228.815 293.158ZM205.154 248.657L219.238 275.146L200.034 285.357L205.154 248.657Z" fill="#1F2432"/>
<path d="M336.587 177.676C379.324 177.676 413.968 202.175 413.968 232.389C413.968 262.604 379.324 287.113 336.587 287.113C293.859 287.113 259.205 262.604 259.205 232.389C259.205 202.175 293.859 177.676 336.587 177.676V177.676Z" fill="#1F2432" stroke="#FFFF00" stroke-width="0.21603"/>
<path d="M336.586 220.801C345.637 220.801 352.981 225.993 352.981 232.389C352.981 238.796 345.637 243.978 336.586 243.978C327.536 243.978 320.202 238.796 320.202 232.389C320.202 225.993 327.536 220.801 336.586 220.801Z" fill="white" stroke="white" stroke-width="0.21603"/>
<path d="M330.131 232.281C330.625 226.368 329.411 217.356 334.987 214.247C336.3 213.349 337.672 213.813 338.59 214.474C342.193 217.06 343.308 224.473 342.39 232.942C337.978 236.358 333.882 236.2 330.131 232.281V232.281Z" fill="white" stroke="#1F2432" stroke-width="2.0004"/>
<path d="M477.59 52.9795C494.527 54.8056 507.358 64.7355 506.233 75.1491C505.117 85.5726 490.47 92.5512 473.533 90.7251C456.596 88.9089 443.765 78.9789 444.881 68.5555C446.006 58.1419 460.653 51.1633 477.59 52.9795Z" stroke="#1F2432" stroke-width="0.21603"/>
<path d="M659.001 190.587L709.437 183.233L783.463 326.062L779.416 326.882L707.266 187.675L660.877 194.437L659.001 190.587Z" fill="#1F2432" stroke="#1F2432" stroke-width="0.21603"/>
<path d="M708.845 249.081L719.307 269.592L745.562 265.792L746.055 262.831L743.39 256.968L744.18 244.866L741.022 239.398L715.458 242.211L714.669 246.88L709.931 247.176L709.734 247.186L709.437 247.205L708.845 247.235V249.081Z" fill="white" stroke="#1F2432" stroke-width="1.0002"/>
<path d="M477.59 52.9795C494.527 54.8056 507.358 64.7355 506.233 75.1491C505.986 77.4391 505.088 79.5514 503.667 81.4565C504.062 77.5674 501.229 74.4681 501.229 74.4681L449.993 80.7359C446.361 77.1232 444.427 72.8788 444.881 68.5555C446.006 58.1419 460.653 51.1633 477.59 52.9795Z" fill="white" stroke="#1F2432" stroke-width="0.21603"/>
<path d="M449.904 80.7065C464.394 78.7027 480.62 77.1628 495.109 75.1591C481.933 67.8252 465.006 65.9103 446.934 76.8668C447.585 78.1006 448.671 79.3739 449.904 80.7065V80.7065Z" fill="#1F2432" stroke="#1F2432" stroke-width="0.21603"/>
<path d="M585.47 100.606C592.28 99.3226 598.103 100.714 597.314 109.973C587.74 120.377 583.101 133.189 582.903 144.698C583.496 167.223 585.766 200.912 578.462 212.263C568.394 233.949 545.368 241.796 530.711 254.678C531.48 257.994 530.256 261.33 529.26 262.564C524.216 266.404 520.623 269.563 515.59 273.402C515.629 274.478 515.678 275.544 515.718 276.61C510.595 280.361 505.463 284.102 500.34 287.853C505.769 290.706 509.569 293.795 512.915 296.944C513.537 298.306 513.27 299.056 512.115 299.224C508.088 294.782 502.67 290.903 494.181 288.258C487.223 293.252 480.275 298.247 473.316 303.241C473.178 306.361 473.05 309.48 472.912 312.599C468.727 315.057 464.532 317.505 460.337 319.962C459.932 319.913 459.538 319.874 459.133 319.824C456.33 321.611 453.517 323.397 450.704 325.174C449.855 324.868 449.006 324.148 448.167 323.832C448.602 317.317 444.071 311.997 442.847 319.775L439.501 317.761C439.728 313.704 440.182 308.769 440.409 304.712C441.831 303.143 444.081 302.205 445.512 300.645L436.402 292.798L436.392 290.261L458.866 272.998C461.452 274.32 464.038 274.666 466.624 272.869C477.057 266.226 487.499 259.573 497.932 252.93C499.442 253.74 500.962 254.539 502.482 255.339C507.427 251.687 512.382 248.025 517.327 244.373C519.153 243.464 520.989 243.82 522.814 245.439C535.34 236.16 547.874 226.892 560.4 217.613C566.815 213.369 571.651 203.133 570.072 168.25C570.368 151.884 569.184 135.736 575.698 118.876C578.56 113.26 582.607 106.222 585.47 100.606V100.606Z" fill="#1F2432" stroke="#1F2432" stroke-width="0.21603"/>
<path d="M682.986 219.755C684.17 219.755 685.058 220.476 685.058 221.354C685.058 222.242 684.17 222.963 682.986 222.963C681.801 222.963 680.814 222.242 680.814 221.354C680.814 220.476 681.801 219.755 682.986 219.755Z" fill="#1F2432" stroke="#1F2432" stroke-width="0.21603"/>
<path d="M503.578 254.944C504.851 254.747 506.075 254.293 507.348 254.944C512.342 251.548 516.962 248.153 521.956 244.757C519.824 244.303 518.738 244.313 516.261 245.725C512.264 248.607 507.575 252.052 503.578 254.944Z" fill="white" stroke="#1F2432" stroke-width="0.21603"/>
<path d="M515.846 272.208C516.429 271.053 516.3 268.852 516.083 267.44C520.87 263.759 525.548 260.452 530.345 256.77C530.099 258.942 529.526 261.064 527.404 262.969C523.407 265.861 519.844 269.316 515.846 272.208Z" fill="white" stroke="#1F2432" stroke-width="0.21603"/>
<path d="M582.805 174.675C584.483 208.423 573.527 223.664 558.13 233.149C582.706 220.752 584.384 199.51 582.805 174.675Z" fill="white" stroke="#1F2432" stroke-width="0.21603"/>
<path d="M594.649 102.501C577.87 127.316 579.745 149.288 579.943 166.147C580.041 183.006 580.929 195.424 578.659 201.573C570.763 223.841 550.095 236.427 529.743 249.979C529.645 250.048 529.546 250.236 529.437 250.186C528.924 249.969 528.628 250.028 528.46 250.246C528.312 250.413 528.253 250.69 528.214 250.996C528.194 251.134 527.987 251.154 527.878 251.223C523.18 254.372 518.521 257.589 514.06 261.005C512.451 259.021 510.635 257.135 508.355 255.497C513.043 252.23 517.732 248.962 522.43 245.705C522.489 245.666 522.558 245.616 522.617 245.567C522.884 245.35 523.14 245.063 523.456 245.103C524.591 245.261 525.045 245.004 524.799 244.313C524.769 244.224 524.956 244.224 525.035 244.175C552.869 227.671 570.862 210.516 570.27 181.012C569.678 147.225 563.854 132.518 584.878 101.07C589.516 99.5989 592.774 100.073 594.649 102.501V102.501Z" fill="white" stroke="#1F2432" stroke-width="0.21603"/>
<path d="M62.2782 131.323C72.7306 131.323 81.2089 137.226 81.2089 144.501C81.2089 151.775 72.7306 157.678 62.2782 157.678C51.8258 157.678 43.3474 151.775 43.3474 144.501C43.3474 137.226 51.8258 131.323 62.2782 131.323Z" fill="white" stroke="#1F2432" stroke-width="0.21603"/>
<path d="M62.3274 140.562C71.3388 140.562 78.6327 144.392 78.6327 149.11C78.6327 153.838 71.3388 157.668 62.3274 157.668C53.326 157.668 46.032 153.838 46.032 149.11C46.032 144.392 53.326 140.562 62.3274 140.562Z" fill="#1F2432" stroke="#1F2432" stroke-width="0.21603"/>
<path d="M62.0214 141.382C67.6868 141.382 72.2863 143.79 72.2863 146.761V152.111C72.2863 155.082 67.6868 157.491 62.0214 157.491C56.3462 157.491 51.7566 155.082 51.7566 152.111V146.761C51.7566 143.79 56.3462 141.382 62.0214 141.382Z" fill="white" stroke="#1F2432" stroke-width="0.21603"/>
<path d="M155.856 388.741C168.914 388.741 179.505 395.996 179.505 404.949C179.505 414.899 180.837 417.07 180.837 426.151C180.837 435.134 169.951 442.438 156.517 442.438C143.094 442.438 132.208 435.134 132.208 426.151V404.949C132.208 395.996 142.798 388.741 155.856 388.741V388.741Z" fill="#1F2432" stroke="white" stroke-width="0.21603"/>
<path d="M156.034 388.81C168.944 388.81 179.416 395.829 179.416 404.495C179.416 413.152 168.944 420.13 156.034 420.13C143.124 420.13 132.652 413.152 132.652 404.495C132.652 395.829 143.124 388.81 156.034 388.81Z" stroke="#1F2432" stroke-width="0.21603"/>
<path d="M179.406 404.87C179.416 405.008 179.416 405.137 179.416 405.275C179.416 414.405 168.944 421.71 156.034 421.71C143.124 421.71 132.652 414.405 132.652 405.275C132.652 405.137 132.661 405.008 132.661 404.87C132.967 413.359 143.4 419.439 156.113 419.439C168.835 419.439 179.11 413.359 179.406 404.87V404.87Z" fill="white" stroke="#1F2432" stroke-width="0.21603"/>
<path d="M436.57 290.409L461.038 307.713L482.821 290.804L483.709 285.336L514.159 264.262L497.784 252.96C487.322 259.633 476.85 266.305 466.378 272.978C464.177 274.281 461.65 274.271 458.975 273.195L436.57 290.409Z" fill="white" stroke="#1F2432" stroke-width="0.21603"/>
<path d="M718.123 260.264L743.193 256.958L744.081 244.985L719.702 248.42L715.656 242.349L718.913 248.538L718.123 260.264Z" fill="#1F2432" stroke="#1F2432" stroke-width="0.21603"/>
<path d="M71.7338 145.853C71.7732 145.991 71.793 146.129 71.793 146.268C71.793 148.41 67.4206 150.137 62.0315 150.137C56.6326 150.137 52.27 148.41 52.27 146.268C52.27 146.129 52.2897 145.991 52.3194 145.853C52.8425 147.798 56.9879 149.308 62.0315 149.308C67.0652 149.308 71.2106 147.798 71.7338 145.853Z" fill="white" stroke="white" stroke-width="0.21603"/>
<path d="M719.604 265.456L719.702 269.602L745.759 265.92L745.661 262.13L720.393 265.348L718.123 260.097L719.604 265.456Z" fill="#1F2432" stroke="#1F2432" stroke-width="0.21603"/>
<path d="M626.43 38.904C625.74 37.9268 624.16 37.759 623.075 37.8775C621.594 41.0953 619.916 44.6389 618.337 47.8567C618.041 49.1695 619.916 48.8339 620.903 49.1399C622.482 45.922 624.851 42.112 626.43 38.904V38.904Z" fill="#1F2432" stroke="#1F2432" stroke-width="0.21603"/>
<path d="M126.631 464.055L126.542 460.008L191.003 453.395L198.682 475.011L198.583 478.96L133.945 489.817L126.631 464.055Z" fill="#1F2432" stroke="#1F2432" stroke-width="0.21603"/>
<path d="M476.346 274.804C479.1 274.804 481.341 276.314 481.341 278.189C481.341 280.055 479.1 281.575 476.346 281.575C473.593 281.575 471.352 280.055 471.352 278.189C471.352 276.314 473.593 274.804 476.346 274.804Z" fill="#1F2432" stroke="#1F2432" stroke-width="0.21603"/>
<path d="M497.745 260.551C501.189 260.551 503.983 262.199 503.983 264.222C503.983 266.246 501.189 267.884 497.745 267.884C494.3 267.884 491.507 266.246 491.507 264.222C491.507 262.199 494.3 260.551 497.745 260.551Z" fill="#1F2432" stroke="#1F2432" stroke-width="0.21603"/>
<path d="M496.935 261.617C499.541 261.617 501.653 263.048 501.653 264.825C501.653 266.591 499.541 268.023 496.935 268.023C494.32 268.023 492.208 266.591 492.208 264.825C492.208 263.048 494.32 261.617 496.935 261.617Z" fill="white" stroke="#1F2432" stroke-width="0.21603"/>
<path d="M440.498 304.801L450.862 313.606L450.704 324.917L452.609 313.941L459.182 309.894L452.056 311.977L440.498 304.801Z" fill="white" stroke="#1F2432" stroke-width="0.21603"/>
<path d="M126.631 460.008L191.003 449.348L198.584 474.913L133.945 485.77L126.631 460.008Z" fill="white" stroke="#1F2432" stroke-width="1.0002"/>
<path d="M211.424 465.239L211.395 463.857L233.662 461.587L236.317 468.99L236.277 470.372L213.951 474.123L211.424 465.239Z" fill="#1F2432" stroke="#1F2432" stroke-width="0.21603"/>
<path d="M211.424 463.857L233.662 460.205L236.277 468.99L213.951 472.741L211.424 463.857Z" fill="white" stroke="#1F2432" stroke-width="1.0002"/>
<path d="M246.848 459.317L246.809 457.935L269.085 455.665L271.73 463.068L271.701 464.45L249.375 468.201L246.848 459.317Z" fill="#1F2432" stroke="#1F2432" stroke-width="0.21603"/>
<path d="M246.848 457.935L269.085 454.283L271.701 463.068L249.375 466.819L246.848 457.935Z" fill="white" stroke="#1F2432" stroke-width="1.0002"/>
<path d="M588.924 97.9801C568.296 124.73 572.836 147.551 571.553 164.133C568.296 140.631 573.428 117.435 588.924 97.9801Z" fill="#1F2432" stroke="#1F2432" stroke-width="0.21603"/>
<path d="M159.686 521.009C184.864 521.009 205.275 536.605 205.275 555.951C205.275 575.298 184.864 590.893 159.686 590.893C134.507 590.893 114.096 575.298 114.096 555.951C114.096 536.605 134.507 521.009 159.686 521.009V521.009Z" fill="#1F2432" stroke="#1F2432" stroke-width="0.21603"/>
<path d="M763.032 409.055C788.2 409.055 808.631 424.671 808.631 444.017C808.631 463.265 788.2 478.96 763.032 478.96C737.863 478.96 717.432 463.265 717.432 444.017C717.432 424.671 737.863 409.055 763.032 409.055Z" fill="#1F2432" stroke="#1F2432" stroke-width="0.21603"/>
<path d="M332.935 233.603C332.935 233.603 331.947 217.317 336.053 214.632C340.159 211.937 332.51 225.954 335.066 234.314C334.287 237.532 331.829 231.896 332.935 233.603Z" fill="#1F2432" stroke="#1F2432" stroke-width="0.21603"/>
<path d="M714.866 246.692L713.879 252.012L709.24 247.205L714.866 246.692Z" fill="#1F2432" stroke="#1F2432" stroke-width="0.21603"/>
</g>
<defs>
<clipPath id="clip0_173_236">
<rect width="842" height="591" fill="white"/>
</clipPath>
</defs>
</svg>
