<svg width="442" height="442" viewBox="0 0 442 442" fill="none" xmlns="http://www.w3.org/2000/svg">
<rect x="0.5" y="0.5" width="380.034" height="380.034" fill="#1F2432" stroke="white"/>
<path d="M31.9828 31.9828H410.017V410.017H31.9828V31.9828Z" fill="white" stroke="#1F2432" stroke-width="3"/>
<rect x="61.4655" y="61.4655" width="380.034" height="380.034" fill="#1F2432" stroke="#1F2432"/>
<path d="M223.21 332.247L230.849 322.581L186.912 287.86L179.273 297.526L196.472 311.117L191.412 317.519L174.214 303.928L166.575 313.594L210.512 348.315L218.151 338.649L199.823 324.165L204.882 317.763L223.21 332.247ZM234.923 317.425L241.867 308.638L210.484 283.837L203.54 292.624L234.923 317.425ZM199.272 289.251L206.216 280.464L197.178 273.321L190.233 282.109L199.272 289.251ZM246.086 284.979C247.404 286.02 247.102 287.821 246.16 289.014C244.672 290.897 242.367 292.135 238.766 291.532L237.133 298.501C244.769 300.966 250.395 299.396 254.462 294.249C259.174 288.286 259.369 281.201 252.904 276.092L252.026 275.398C247.381 271.727 242.906 271.454 237.045 275.387L234.668 276.976C232.03 278.765 231.019 278.884 229.261 277.495C228.32 276.751 227.99 275.878 228.783 274.874C229.577 273.87 230.502 273.989 231.444 274.733L232.448 275.527L239.392 266.74L237.949 265.599C233.053 261.73 226.483 262.044 221.126 268.823C215.769 275.601 216.982 282.066 221.878 285.935L222.819 286.679C228.092 290.846 232.503 291.069 238.365 287.136L240.741 285.548C243.33 283.821 244.579 283.788 246.086 284.979ZM249.112 250.699L253.378 245.301L245.72 239.249L241.454 244.647L232.542 237.604L226.853 247.383L234.51 253.435L233.385 257.439L239.787 262.499L242.168 259.486L256.29 270.646C263.508 276.351 268.68 276.257 273.69 269.918C275.476 267.658 276.287 265.342 276.436 263.217L270.348 258.406L267.967 261.419C266.429 263.364 265.306 263.496 262.67 261.413L249.112 250.699ZM277.355 222.959C269.384 216.66 261.333 217.945 256.026 224.661C250.718 231.377 251.329 239.507 259.3 245.806L267.585 252.354C275.557 258.653 283.608 257.368 288.915 250.652C294.223 243.936 293.612 235.806 285.641 229.507L277.355 222.959ZM279.449 238.889C282.086 240.972 282.547 242.969 281.258 244.601C279.968 246.233 277.919 246.245 275.283 244.161L265.491 236.424C262.855 234.34 262.393 232.344 263.683 230.712C264.973 229.08 267.022 229.068 269.658 231.151L279.449 238.889ZM300.459 234.496L307.404 225.708L287.695 210.133C285.866 207.158 286.059 203.946 288.291 201.121C288.985 200.243 290.067 199.262 290.814 198.832L282.466 192.235C281.768 192.602 280.998 193.319 280.353 194.135C278.022 197.085 277.62 200.948 280.041 204.594L274.78 202.476L269.076 209.695L300.459 234.496ZM332.811 220.911C335.843 211.785 334.141 205.036 328.966 198.295L303.796 165.76L296.703 174.736L310.343 191.022L290.998 181.954L283.905 190.93L321.592 206.335L322.662 207.691C325.142 210.874 326.089 214.579 325.121 219.933L332.811 220.911Z" fill="white"/>
</svg>
