<svg width="120" height="40" viewBox="0 0 134 46" fill="none" xmlns="http://www.w3.org/2000/svg">
<path d="M67.7736 35H72.2856L68.9896 25.72C70.5576 24.664 71.5816 22.744 71.5816 19.704C71.5816 14.584 68.6696 12.6 65.3096 12.6H59.4216V35H63.7416V26.776H65.1816L67.7736 35ZM63.7416 22.936V16.44H64.6696C66.5256 16.44 67.2936 17.592 67.2936 19.704C67.2936 21.784 66.5256 22.936 64.6696 22.936H63.7416ZM73.3479 29.368C73.3479 33.272 75.4279 35.384 78.8839 35.384C81.6039 35.384 83.4279 33.88 84.1959 30.968L81.6999 29.912C81.0599 31.32 80.2599 31.928 79.0119 31.928C77.6999 31.928 77.2839 30.936 77.2839 29.496V28.408H84.2919V25.112C84.2919 21.016 82.3079 18.616 78.8199 18.616C75.3319 18.616 73.3479 21.016 73.3479 25.112V29.368ZM80.3559 25.272H77.2839V24.536C77.2839 22.84 77.8599 22.104 78.8199 22.104C79.7799 22.104 80.3559 22.84 80.3559 24.536V25.272ZM90.1276 24.44C90.1276 22.872 90.6716 22.104 91.6636 22.104C92.5596 22.104 93.1996 22.872 93.1996 24.44V25.24H97.1356V24.824C97.1356 20.888 94.9916 18.616 91.6636 18.616C88.3036 18.616 86.1916 20.824 86.1916 24.792V29.272C86.1916 33.272 88.2076 35.384 91.7596 35.384C94.4796 35.384 96.3036 33.88 97.0716 30.968L94.5756 29.88C93.9356 31.32 93.1676 31.928 91.8876 31.928C90.5116 31.928 90.1276 30.872 90.1276 29.56V24.44ZM109.729 24.664C109.729 20.792 107.521 18.616 104.257 18.616C100.993 18.616 98.7854 20.792 98.7854 24.664V29.368C98.7854 33.24 100.993 35.384 104.257 35.384C107.521 35.384 109.729 33.24 109.729 29.368V24.664ZM105.793 29.496C105.793 31.192 105.217 31.928 104.257 31.928C103.297 31.928 102.721 31.192 102.721 29.496V24.536C102.721 22.84 103.297 22.104 104.257 22.104C105.217 22.104 105.793 22.84 105.793 24.536V29.496ZM111.949 35H115.885V24.536C116.397 23.192 117.421 22.456 118.797 22.456C119.245 22.456 119.821 22.552 120.141 22.68V18.904C119.853 18.776 119.437 18.712 118.989 18.712C117.549 18.712 116.333 19.544 115.725 21.144L115.181 19H111.949V35ZM128.231 30.712C127.975 31.512 127.431 31.928 126.695 31.928C125.703 31.928 125.159 31.192 125.159 29.432V24.6C125.159 22.84 125.703 22.104 126.695 22.104C127.431 22.104 127.975 22.52 128.231 23.32V30.712ZM128.935 35H132.167V12.216H128.231V20.184C127.783 19.192 126.727 18.616 125.479 18.616C123.143 18.616 121.223 20.184 121.223 24.312V29.72C121.223 33.848 123.143 35.384 125.479 35.384C126.855 35.384 127.847 34.808 128.391 33.56L128.935 35Z" fill="#1F2432"/>
<ellipse rx="22.4136" ry="22.4283" transform="matrix(1 0 -0.00703665 0.999975 23.5617 22.7856)" fill="#1F2432"/>
<path d="M49.6835 22.9824C49.5983 35.093 39.7179 44.9101 27.6157 44.9101C15.5134 44.9101 5.77118 35.093 5.8564 22.9824C5.94162 10.8717 15.8221 1.05464 27.9243 1.05464C40.0265 1.05464 49.7688 10.8717 49.6835 22.9824Z" fill="white" stroke="#1F2432"/>
<ellipse rx="22.4136" ry="22.4283" transform="matrix(1 0 -0.00703665 0.999975 33.3809 23.2446)" fill="#1F2432"/>
<ellipse rx="4.98079" ry="4.98406" transform="matrix(0.736761 -0.676153 0.670952 0.741501 33.4136 22.5383)" fill="white"/>
</svg>
