<svg width="78" height="24" viewBox="0 0 78 24" fill="none" xmlns="http://www.w3.org/2000/svg">
<path d="M8.44125 23H12.9533L11.4493 13.72C13.2093 12.664 14.6173 10.744 15.1933 7.704C16.2173 2.584 13.6893 0.599998 10.3293 0.599998H4.44125L0.08925 23H4.40925L5.97725 14.776H7.41725L8.44125 23ZM6.74525 10.936L7.99325 4.44H8.92125C10.7773 4.44 11.3213 5.592 10.9053 7.704C10.5213 9.784 9.52925 10.936 7.67325 10.936H6.74525ZM15.1035 17.368C14.3355 21.272 15.9995 23.384 19.4555 23.384C22.1755 23.384 24.2875 21.88 25.6315 18.968L23.3275 17.912C22.4315 19.32 21.5035 19.928 20.2555 19.928C18.9435 19.928 18.7195 18.936 19.0075 17.496L19.2315 16.408H26.2395L26.8795 13.112C27.6475 9.016 26.1435 6.616 22.6555 6.616C19.1675 6.616 16.7035 9.016 15.9355 13.112L15.1035 17.368ZM22.9115 13.272H19.8395L19.9675 12.536C20.2875 10.84 21.0235 10.104 21.9835 10.104C22.9435 10.104 23.3595 10.84 23.0395 12.536L22.9115 13.272ZM32.8433 12.44C33.1313 10.872 33.8353 10.104 34.8273 10.104C35.7233 10.104 36.2033 10.872 35.9153 12.44L35.7552 13.24H39.6913L39.7553 12.824C40.5233 8.888 38.8273 6.616 35.4993 6.616C32.1393 6.616 29.6113 8.824 28.8433 12.792L27.9473 17.272C27.1792 21.272 28.7793 23.384 32.3313 23.384C35.0513 23.384 37.1633 21.88 38.5073 18.968L36.2353 17.88C35.3073 19.32 34.4113 19.928 33.1313 19.928C31.7552 19.928 31.5953 18.872 31.8513 17.56L32.8433 12.44ZM52.381 12.664C53.149 8.792 51.357 6.616 48.093 6.616C44.829 6.616 42.205 8.792 41.437 12.664L40.541 17.368C39.773 21.24 41.565 23.384 44.829 23.384C48.093 23.384 50.717 21.24 51.485 17.368L52.381 12.664ZM47.517 17.496C47.197 19.192 46.461 19.928 45.501 19.928C44.541 19.928 44.125 19.192 44.445 17.496L45.405 12.536C45.725 10.84 46.461 10.104 47.421 10.104C48.381 10.104 48.797 10.84 48.477 12.536L47.517 17.496ZM52.6167 23H56.5528L58.5688 12.536C59.3368 11.192 60.5208 10.456 61.8968 10.456C62.3448 10.456 62.8888 10.552 63.1768 10.68L63.9128 6.904C63.6568 6.776 63.2408 6.712 62.7928 6.712C61.3528 6.712 59.9768 7.544 59.0808 9.144L58.9528 7H55.7208L52.6167 23ZM69.7305 18.712C69.3145 19.512 68.6745 19.928 67.9385 19.928C66.9465 19.928 66.5625 19.192 66.8825 17.432L67.8425 12.6C68.1625 10.84 68.8665 10.104 69.8585 10.104C70.5945 10.104 71.0425 10.52 71.1385 11.32L69.7305 18.712ZM69.6025 23H72.8345L77.2505 0.216H73.3145L71.7465 8.184C71.5225 7.192 70.5625 6.616 69.3145 6.616C66.9785 6.616 64.7385 8.184 63.9385 12.312L62.9145 17.72C62.0825 21.848 63.7145 23.384 66.0505 23.384C67.4265 23.384 68.5465 22.808 69.3145 21.56L69.6025 23Z" fill="#1F2432"/>
</svg>
