<svg width="116" height="36" viewBox="0 0 116 36" fill="none" xmlns="http://www.w3.org/2000/svg">
<path d="M12.6619 35H19.4299L17.1739 21.08C19.8139 19.496 21.9259 16.616 22.7899 12.056C24.3259 4.376 20.5339 1.4 15.4939 1.4H6.66188L0.133875 35H6.61388L8.96588 22.664H11.1259L12.6619 35ZM10.1179 16.904L11.9899 7.16H13.3819C16.1659 7.16 16.9819 8.888 16.3579 12.056C15.7819 15.176 14.2939 16.904 11.5099 16.904H10.1179ZM22.6553 26.552C21.5032 32.408 23.9993 35.576 29.1833 35.576C33.2633 35.576 36.4313 33.32 38.4473 28.952L34.9913 27.368C33.6473 29.48 32.2553 30.392 30.3833 30.392C28.4153 30.392 28.0793 28.904 28.5113 26.744L28.8473 25.112H39.3593L40.3193 20.168C41.4713 14.024 39.2153 10.424 33.9833 10.424C28.7513 10.424 25.0553 14.024 23.9033 20.168L22.6553 26.552ZM34.3672 20.408H29.7593L29.9513 19.304C30.4313 16.76 31.5353 15.656 32.9753 15.656C34.4153 15.656 35.0393 16.76 34.5593 19.304L34.3672 20.408ZM49.2649 19.16C49.6969 16.808 50.7529 15.656 52.2409 15.656C53.5849 15.656 54.3049 16.808 53.8729 19.16L53.6329 20.36H59.5369L59.6329 19.736C60.7849 13.832 58.2409 10.424 53.2489 10.424C48.2089 10.424 44.4169 13.736 43.2649 19.688L41.9209 26.408C40.7689 32.408 43.1689 35.576 48.4969 35.576C52.5769 35.576 55.7449 33.32 57.7609 28.952L54.3529 27.32C52.9609 29.48 51.6169 30.392 49.6969 30.392C47.6329 30.392 47.3929 28.808 47.7769 26.84L49.2649 19.16ZM78.5715 19.496C79.7235 13.688 77.0355 10.424 72.1395 10.424C67.2435 10.424 63.3075 13.688 62.1555 19.496L60.8115 26.552C59.6595 32.36 62.3475 35.576 67.2435 35.576C72.1395 35.576 76.0755 32.36 77.2275 26.552L78.5715 19.496ZM71.2755 26.744C70.7955 29.288 69.6915 30.392 68.2515 30.392C66.8115 30.392 66.1875 29.288 66.6675 26.744L68.1075 19.304C68.5875 16.76 69.6915 15.656 71.1315 15.656C72.5715 15.656 73.1955 16.76 72.7155 19.304L71.2755 26.744ZM78.9251 35H84.8291L87.8531 19.304C89.0051 17.288 90.7811 16.184 92.8451 16.184C93.5171 16.184 94.3331 16.328 94.7651 16.52L95.8691 10.856C95.4851 10.664 94.8611 10.568 94.1891 10.568C92.0291 10.568 89.9651 11.816 88.6211 14.216L88.4291 11H83.5811L78.9251 35ZM104.596 28.568C103.972 29.768 103.012 30.392 101.908 30.392C100.42 30.392 99.8438 29.288 100.324 26.648L101.764 19.4C102.244 16.76 103.3 15.656 104.788 15.656C105.892 15.656 106.564 16.28 106.708 17.48L104.596 28.568ZM104.404 35H109.252L115.876 0.823999H109.972L107.62 12.776C107.284 11.288 105.844 10.424 103.972 10.424C100.468 10.424 97.1078 12.776 95.9078 18.968L94.3718 27.08C93.1237 33.272 95.5718 35.576 99.0758 35.576C101.14 35.576 102.82 34.712 103.972 32.84L104.404 35Z" fill="#1F2432"/>
</svg>
