<svg width="770" height="770" viewBox="0 0 770 770" fill="none" xmlns="http://www.w3.org/2000/svg">
<rect x="0.5" y="0.5" width="662.793" height="662.793" fill="#1F2432" stroke="white"/>
<path d="M54.6034 54.6034H715.397V715.397H54.6034V54.6034Z" fill="white" stroke="#1F2432" stroke-width="3"/>
<rect x="106.707" y="106.707" width="662.793" height="662.793" fill="#1F2432" stroke="#1F2432"/>
<path d="M361.725 587.622L376.083 573.265L341.768 548.522C344.008 539.562 342.379 528.972 334.539 517.466C321.505 497.916 307.148 499.647 296.457 510.338L277.721 529.074L335.15 614.198L348.896 600.452L327.716 569.294L332.299 564.712L361.725 587.622ZM317.941 554.632L301.242 529.99L304.195 527.037C310.101 521.132 315.498 523.066 320.894 531.11C326.291 538.951 326.8 545.773 320.894 551.679L317.941 554.632ZM365.004 548.502C374.982 563.369 386.998 564.794 397.994 553.797C406.649 545.142 408.584 533.636 403.595 520.094L392.903 524.065C394.532 531.396 393.514 536.284 389.543 540.255C385.368 544.429 381.499 541.986 377.833 536.487L375.084 532.312L397.384 510.013L388.932 497.489C378.343 482.012 365.92 479.161 354.821 490.259C343.723 501.358 343.519 516.835 354.109 532.312L365.004 548.502ZM376.815 510.624L367.04 520.399L365.106 517.65C360.727 511.235 360.727 506.551 363.782 503.496C366.837 500.442 370.502 501.46 374.881 507.875L376.815 510.624ZM405.77 476.374C401.698 470.468 401.494 465.784 404.65 462.628C407.501 459.777 411.473 460.693 415.545 466.599L417.582 469.654L430.106 457.129L428.986 455.602C418.906 440.634 406.28 438.801 395.69 449.391C384.998 460.082 383.98 475.152 394.163 490.222L405.567 507.328C415.851 522.5 427.662 524.129 438.965 512.827C447.62 504.172 449.555 492.666 444.565 479.123L433.874 482.891C435.503 490.426 434.586 495.211 430.514 499.284C426.135 503.663 422.266 500.812 418.906 495.822L405.77 476.374ZM468.652 414.918C458.775 400.154 446.149 398.932 435.763 409.318C425.377 419.704 423.951 434.977 433.828 449.742L445.945 467.561C455.822 482.325 468.346 483.445 478.732 473.059C489.118 462.673 490.646 447.502 480.769 432.737L468.652 414.918ZM468.55 445.771C472.929 452.185 472.929 456.869 469.874 459.924C466.819 462.979 463.153 461.96 458.775 455.546L446.047 436.708C441.669 430.293 441.669 425.609 444.723 422.555C447.778 419.5 451.444 420.518 455.822 426.933L468.55 445.771ZM502.291 447.057L514.815 434.533L487.934 394.821C486.101 388.101 487.527 381.992 491.905 377.613C493.331 376.188 495.367 374.762 496.691 374.253L487.018 359.896C485.796 360.303 484.268 361.423 482.843 362.849C478.261 367.431 476.53 374.457 478.77 382.399L471.54 375.984L461.256 386.268L502.291 447.057ZM543.102 378.957C544.324 382.826 543.611 386.186 541.27 388.528C538.113 391.685 534.549 390.565 529.967 383.946L517.646 365.516C513.064 358.898 512.963 354.316 516.119 351.159C518.461 348.817 521.21 348.715 524.061 350.955L543.102 378.957ZM556.339 393.009L566.624 382.724L508.177 296.174L495.653 308.699L516.017 339.042C512.148 336.598 507.261 337.82 503.289 341.791C495.856 349.224 493.718 361.341 504.308 377.022L518.257 397.489C528.745 413.271 538.826 412.966 546.259 405.533C550.637 401.154 552.368 395.758 550.841 389.343L556.339 393.009ZM582.012 339.64C584.151 342.796 583.438 346.36 581.096 348.702C577.838 351.96 573.561 352.775 567.961 349.618L563.073 361.43C573.867 369.168 583.031 368.761 590.871 360.921C600.341 351.451 602.275 338.723 594.435 327.013L593.315 325.282C586.696 315.609 580.18 313.98 569.59 318.664C561.139 322.431 560.019 324.366 556.149 318.868L555.844 318.358C554.215 315.915 553.807 313.471 555.946 311.333C558.695 308.583 560.833 311.333 563.073 314.591L575.496 302.169C568.063 291.273 558.491 286.59 546.985 298.096C536.701 308.38 536.497 320.802 542.912 330.272L543.93 331.697C552.178 344.018 558.797 343.916 572.136 337.094C575.801 335.261 579.976 336.585 582.012 339.64Z" fill="white"/>
</svg>
