<?xml version="1.0" standalone="no"?>
<!DOCTYPE svg PUBLIC "-//W3C//DTD SVG 20010904//EN"
 "http://www.w3.org/TR/2001/REC-SVG-20010904/DTD/svg10.dtd">
<svg version="1.0" xmlns="http://www.w3.org/2000/svg"
 width="700.000000pt" height="700.000000pt" viewBox="0 0 700.000000 700.000000"
 preserveAspectRatio="xMidYMid meet">
<metadata>
Created by potrace 1.14, written by Peter Selinger 2001-2017
</metadata>
<g transform="translate(0.000000,700.000000) scale(0.100000,-0.100000)"
fill="#000000" stroke="none">
<path d="M3268 6995 c-1 -1 -41 -6 -88 -9 -124 -10 -148 -13 -283 -36 -1092
-185 -2034 -885 -2532 -1880 -47 -94 -90 -193 -145 -330 -32 -82 -104 -316
-125 -410 -28 -123 -57 -281 -69 -376 -28 -221 -28 -687 -1 -856 2 -13 6 -43
9 -68 22 -168 82 -427 141 -605 98 -294 226 -557 401 -821 201 -305 437 -566
720 -795 237 -193 502 -353 814 -492 197 -88 590 -204 785 -232 23 -3 50 -7
61 -9 11 -2 47 -7 79 -11 33 -4 71 -8 84 -11 136 -21 592 -21 721 0 14 3 52 7
85 11 125 13 363 60 480 95 39 11 75 22 80 23 234 66 543 203 780 345 385 231
690 503 989 882 143 181 319 483 424 725 98 229 189 521 218 703 3 20 7 39 9
42 3 5 28 174 39 269 30 237 24 583 -14 856 -81 577 -314 1140 -669 1608 -129
170 -167 214 -331 378 -307 306 -680 559 -1075 727 -229 97 -510 184 -705 218
-25 4 -47 8 -50 9 -3 0 -27 4 -53 9 -27 4 -58 9 -70 12 -12 2 -51 6 -87 10
-36 3 -78 8 -95 11 -34 5 -521 13 -527 8z"/>
</g>
</svg>
